# xmcd
#
# Track frame offsets:
#	150
#	14949
#	26598
#	38217
#	51161
#	65343
#	80098
#	93301
#	106437
#	119755
#	129876
#	140361
#	152336
#	164121
#	177363
#	189336
#	201673
#	214468
#	227941
#	240680
#	253628
#
# Disc length: 3558 seconds
#
# Revision: 0
# Processed by: cddbd v1.5.2PL0 Copyright (c) Steve Scherf et al.
# Submitted via: audiograbber 1.83.01
#
DISCID=3b0de415
DTITLE=Various Artist - Mega Hits
DYEAR=2017
DGENRE=Sertanejo
TTITLE0=Naiara Azevedo - 50 Reais
TTITLE1=João Neto and Frederico - Chorou na Escadaria
TTITLE2=My e Karen - Part.Naiara Azevedo - Coração de Osso
TTITLE3=Iury Flores - Part. João Neto e Frederico - Rosas Amarelas
TTITLE4=Diego Ferrari - Part. João Neto e Frederico - Vish
TTITLE5=Naiara Azevedo - Ex do Seu Atual
TTITLE6=João Neto e Frederico - Esse Sou Eu na Vida
TTITLE7=May e Karen - Sambou na Minha Cara
TTITLE8=Iury Flores - Doce Lar
TTITLE9=Naiara Azevedo - O Nome Dela é Rapariga
TTITLE10=João Neto e Frederico - Part. Naiara Azevedo - Bobeia Pra Ver
TTITLE11=May e Karen - Sinto Muito
TTITLE12=Iury Flores - Fora da Casinha
TTITLE13=Diego Ferrari - Part. Naiara Azevedo - Moleque, Covarde, Traira
TTITLE14=Naiara Azevedo - Inquilino
TTITLE15=João Neto e Frederico - Hoje é dia de Maldade
TTITLE16=May e Karen - Vida de Solteiro
TTITLE17=Iury Flores - Medo do Escuro
TTITLE18=Naiara Azevedo - Radinho do Seu Zé
TTITLE19=João Neto e Frederico - Pior que Tá Não Fica
TTITLE20=May e Karen - O Que Você Perdeu
EXTD=
EXTT0=
EXTT1=
EXTT2=
EXTT3=
EXTT4=
EXTT5=
EXTT6=
EXTT7=
EXTT8=
EXTT9=
EXTT10=
EXTT11=
EXTT12=
EXTT13=
EXTT14=
EXTT15=
EXTT16=
EXTT17=
EXTT18=
EXTT19=
EXTT20=
PLAYORDER=
